# xmcd
# 
# Track frame offsets:
#     150
#     23663
#     50430
#     69185
#     86760
#     105190
#     126680
#     142820
#     162838
#     182860
#     199980
#     214445
# 
# Disc length: 3160
# 
# Revision: 2
# Processed by: cddbd v1.5.2PL0 Copyright (c) Steve Scherf et al.
# Submitted via: BonkEnc v1.0.8
# 
DISCID=a90c560c
DTITLE=MOOMIN - SOWAKA
DYEAR=2007
DGENRE=Reggae
TTITLE0=山あり谷ありライトステップ
TTITLE1=No No No
TTITLE2=陽炎
TTITLE3=One Big Road
TTITLE4=長い夜
TTITLE5=その瞳はミステリアス
TTITLE6=Still Remember
TTITLE7=Run Di Place [Another Wicked Mix]
TTITLE8=サウンドゲリラ
TTITLE9=Party Time
TTITLE10=君がいれば
TTITLE11=その瞳はミステリアス [Remix]
EXTD=YEAR: 2007
EXTT0=
EXTT1=
EXTT2=
EXTT3=
EXTT4=
EXTT5=
EXTT6=
EXTT7=
EXTT8=
EXTT9=
EXTT10=
EXTT11=
PLAYORDER=
